<svg xmlns="http://www.w3.org/2000/svg" width="857" height="584" viewBox="0 0 857 584">
  <defs>
    <style>
      .cls-1 {
        fill: #1597a6;
        fill-rule: evenodd;
      }
    </style>
  </defs>
  <path class="cls-1" d="M769.981,384.826c-6.295,5.443-11.929,10.323-17.921,14.307a23.393,23.393,0,0,0-5.1-1.7c-46.243-9.31-83.294-20.1-112.988-31.575a108.07,108.07,0,0,0-32.285-14.132c-50.344-25.018-71.493-51.893-79.522-73.8a76.672,76.672,0,0,1-4.507-29.336c18.929,34.832,54.254,64.216,115.614,64.216,80.765,0,123.014-64.768,123.014-128.719,0-50.365,0-184.1-179.328-184.1-117.592,0-204.113,52.253-330.644,199.687-23.066,26.886-41.968,53.145-58.645,76.338C143.5,337.432,117.79,369.914,70.2,371.086,53.738,358.906,32.473,348.105,0,348.105v46.4c26.8,0,38.967,10.557,55.827,25.14C74.712,436,98.215,456.363,142.822,456.363s68.1-20.366,86.98-36.721c16.842-14.6,29-25.14,55.805-25.14s38.976,10.557,55.827,25.14c18.884,16.355,42.4,36.721,86.993,36.721,44.638,0,68.128-20.366,87.016-36.721,16.856-14.583,29.026-25.14,55.836-25.14a77.266,77.266,0,0,1,15.666,1.544c7.592,3.6,15.518,7.087,23.855,10.435a208.793,208.793,0,0,1,16.325,13.161c18.884,16.355,42.4,36.721,87,36.721,44.629,0,68.131-20.366,87.011-36.721,16.865-14.583,29.035-25.14,55.85-25.14v-46.4c-44.611,0-68.114,20.366-87.007,36.721h0Zm-285.713.011c-16.846,14.583-29.026,25.124-55.849,25.124-26.789,0-38.968-10.525-55.819-25.124-18.884-16.366-42.4-36.732-87-36.732s-68.114,20.366-86.989,36.732c-16.842,14.6-29,25.124-55.792,25.124a71.045,71.045,0,0,1-21.532-3.051C164.47,388.4,193.736,347.9,226.177,302.791c16.134-22.419,34.411-47.835,56.184-73.2C398.447,94.324,475.544,46.368,576.946,46.368,698.9,46.368,709.1,114.392,709.1,184.078c0,40.991-23.449,82.326-75.844,82.326-83.191,0-87.4-78.072-87.4-93.7,0-.388-0.094-0.743-0.112-1.125-0.053-.817-0.129-1.607-0.245-2.4-0.129-.737-0.259-1.459-0.446-2.175a21.911,21.911,0,0,0-.669-2.117,20.321,20.321,0,0,0-.882-2.106,18.22,18.22,0,0,0-1.066-1.925c-0.4-.674-0.829-1.316-1.288-1.942-0.433-.546-0.887-1.109-1.382-1.639-0.571-.61-1.141-1.194-1.783-1.772-0.277-.223-0.491-0.525-0.767-0.753-0.276-.212-0.575-0.345-0.843-0.547a25.008,25.008,0,0,0-2.135-1.39,19.893,19.893,0,0,0-4.066-1.877c-0.735-.255-1.471-0.5-2.224-0.685-0.709-.164-1.409-0.3-2.127-0.419-0.847-.117-1.68-0.2-2.518-0.239-0.353-.01-0.683-0.106-1.026-0.106-0.374,0-.726.1-1.1,0.106-0.838.064-1.658,0.133-2.474,0.255a20.7,20.7,0,0,0-2.18.43,17.287,17.287,0,0,0-2.2.668,19.3,19.3,0,0,0-2.109.849,22.165,22.165,0,0,0-2,1.066,19.743,19.743,0,0,0-1.926,1.257,21.358,21.358,0,0,0-1.685,1.364c-0.633.562-1.231,1.146-1.81,1.772-0.241.26-.517,0.466-0.771,0.753-2.127,2.562-52.195,63.807-26.454,135.084,8.541,23.644,24.416,45.012,47.157,64.147-17.11,7.427-29.566,18.159-40.457,27.6h0Zm0,0M714.136,537.6c-26.806,0-38.985-10.541-55.837-25.14-18.884-16.355-42.4-36.721-87.02-36.721s-68.122,20.366-87,36.721c-16.855,14.6-29.026,25.14-55.85,25.14-26.788,0-38.967-10.541-55.827-25.14-18.875-16.355-42.4-36.721-86.993-36.721s-68.114,20.366-86.989,36.721c-16.842,14.6-29,25.14-55.8,25.14S103.854,527.056,87,512.457C68.119,496.1,44.617,475.736,0,475.736v46.4c26.8,0,38.967,10.541,55.827,25.135,18.884,16.371,42.387,36.72,86.994,36.72s68.1-20.349,86.98-36.72c16.842-14.594,29-25.135,55.805-25.135s38.976,10.541,55.827,25.135c18.884,16.371,42.4,36.72,86.993,36.72,44.638,0,68.128-20.349,87.016-36.72,16.856-14.594,29.026-25.135,55.836-25.135s38.986,10.541,55.855,25.135c18.884,16.371,42.4,36.72,87,36.72,44.629,0,68.131-20.349,87.011-36.72,16.865-14.594,29.035-25.135,55.85-25.135v-46.4c-44.62,0-68.123,20.366-87.007,36.721-16.865,14.583-29.044,25.14-55.854,25.14h0Zm0,0"/>
</svg>
