<svg xmlns="http://www.w3.org/2000/svg" width="187" height="125" viewBox="0 0 187 125">
  <defs>
    <style>
      .cls-1 {
        fill-rule: evenodd;
        opacity: 0.5;
      }
    </style>
  </defs>
  <path id="Forma_1" data-name="Forma 1" class="cls-1" d="M167.521,0H19.479A19.533,19.533,0,0,0,0,19.531v85.938A19.532,19.532,0,0,0,19.479,125H167.52A19.532,19.532,0,0,0,187,105.469V19.531A19.533,19.533,0,0,0,167.521,0Zm11.687,105.469a11.718,11.718,0,0,1-11.687,11.72H19.479a11.718,11.718,0,0,1-11.688-11.72V19.531A11.718,11.718,0,0,1,19.479,7.811H167.52a11.718,11.718,0,0,1,11.688,11.719v85.936h0Zm3.9-82.031H3.9A3.9,3.9,0,0,0,0,27.342V50.78a3.9,3.9,0,0,0,3.9,3.907H183.1A3.9,3.9,0,0,0,187,50.78V27.342A3.9,3.9,0,0,0,183.1,23.436Zm-3.9,23.438H7.791V31.249H179.208V46.874h0ZM74.021,78.124H27.271a3.906,3.906,0,0,0,0,7.813h46.75A3.906,3.906,0,0,0,74.021,78.124Zm0,15.625H27.271a3.906,3.906,0,0,0,0,7.813h46.75A3.906,3.906,0,0,0,74.021,93.749Zm77.916-23.438h-7.792A11.717,11.717,0,0,0,132.458,82.03v7.811a11.718,11.718,0,0,0,11.687,11.72h7.792a11.718,11.718,0,0,0,11.687-11.72V82.03A11.717,11.717,0,0,0,151.937,70.311Zm3.9,19.532a3.9,3.9,0,0,1-3.9,3.906h-7.792a3.9,3.9,0,0,1-3.9-3.906V82.03a3.9,3.9,0,0,1,3.9-3.907h7.792a3.9,3.9,0,0,1,3.9,3.907v7.813Z"/>
</svg>
