<svg xmlns="http://www.w3.org/2000/svg" width="728" height="728" viewBox="0 0 728 728">
  <defs>
    <style>
      .cls-1 {
        fill: #d0c224;
        fill-rule: evenodd;
      }
    </style>
  </defs>
  <path id="Forma_1_copy_11" data-name="Forma 1 copy 11" class="cls-1" d="M127.4,74.032c-30.1,0-54.6,24.913-54.6,55.525s24.5,55.523,54.6,55.523S182,160.169,182,129.557,157.5,74.032,127.4,74.032Zm0,86.37c-16.719,0-30.333-13.833-30.333-30.845S110.68,98.712,127.4,98.712s30.333,13.826,30.333,30.845S144.12,160.4,127.4,160.4Zm479.267-61.69a12.338,12.338,0,1,1-12.133,12.332A12.233,12.233,0,0,1,606.666,98.712Zm-48.533,0A12.338,12.338,0,1,1,546,111.044,12.232,12.232,0,0,1,558.133,98.712Zm72.8,37.012A12.341,12.341,0,1,1,618.8,148.063,12.239,12.239,0,0,1,630.932,135.724Zm-48.534,0a12.341,12.341,0,1,1-12.133,12.339A12.239,12.239,0,0,1,582.4,135.724ZM509.6,98.712a12.338,12.338,0,1,1-12.133,12.332A12.233,12.233,0,0,1,509.6,98.712Zm24.266,37.012a12.341,12.341,0,1,1-12.133,12.339A12.239,12.239,0,0,1,533.865,135.724Zm-72.8-37.012a12.338,12.338,0,1,1-12.133,12.332A12.233,12.233,0,0,1,461.066,98.712Zm24.267,37.012A12.341,12.341,0,1,1,473.2,148.063,12.238,12.238,0,0,1,485.333,135.724Zm-72.8-37.012A12.338,12.338,0,1,1,400.4,111.044,12.233,12.233,0,0,1,412.532,98.712ZM436.8,135.724a12.341,12.341,0,1,1-12.135,12.339A12.238,12.238,0,0,1,436.8,135.724ZM728,202.258V56.854C728,25.5,702.92,0,672.088,0H55.909C25.078,0,0,25.5,0,56.854V202.245a56.857,56.857,0,0,0,21.562,44.517A56.93,56.93,0,0,0,0,291.293V436.685a56.873,56.873,0,0,0,21.562,44.521A56.916,56.916,0,0,0,0,525.733V671.124C0,702.489,25.078,728,55.909,728H672.076c30.831,0,55.912-25.506,55.912-56.856V525.733a56.866,56.866,0,0,0-21.562-44.517A56.849,56.849,0,0,0,728,436.7V291.293a56.86,56.86,0,0,0-21.56-44.516A56.88,56.88,0,0,0,728,202.258ZM703.733,525.733V671.124c0,17.748-14.2,32.183-31.645,32.183H55.909c-17.447.01-31.643-14.425-31.643-32.168V525.733c0-17.743,14.2-32.178,31.643-32.178H672.076C689.537,493.555,703.733,507.99,703.733,525.733Zm0-234.44V436.685c0,17.742-14.2,32.182-31.645,32.182H55.909c-17.447.011-31.643-14.424-31.643-32.167V291.293c0-17.742,14.2-32.177,31.643-32.177H672.076C689.537,259.116,703.733,273.551,703.733,291.293ZM55.909,234.438c-17.447,0-31.643-14.437-31.643-32.18V56.854c0-17.743,14.2-32.178,31.643-32.178H672.076c17.461,0,31.657,14.435,31.657,32.178V202.245c0,17.743-14.2,32.178-31.645,32.178H55.909v0.015ZM127.4,419.52c30.1,0,54.6-24.911,54.6-55.523s-24.5-55.526-54.6-55.526S72.8,333.384,72.8,364,97.3,419.52,127.4,419.52Zm0-86.369c16.721,0,30.333,13.832,30.333,30.846S144.12,394.842,127.4,394.842,97.066,381.015,97.066,364,110.68,333.151,127.4,333.151Zm479.267,0a12.341,12.341,0,1,1-12.133,12.339A12.235,12.235,0,0,1,606.666,333.151Zm-48.533,0A12.341,12.341,0,1,1,546,345.49,12.234,12.234,0,0,1,558.133,333.151Zm72.8,37.017A12.339,12.339,0,1,1,618.8,382.5,12.236,12.236,0,0,1,630.932,370.168Zm-48.534,0A12.339,12.339,0,1,1,570.265,382.5,12.235,12.235,0,0,1,582.4,370.168Zm-72.8-37.017a12.341,12.341,0,1,1-12.133,12.339A12.235,12.235,0,0,1,509.6,333.151Zm24.266,37.017A12.339,12.339,0,1,1,521.732,382.5,12.236,12.236,0,0,1,533.865,370.168Zm-72.8-37.017a12.341,12.341,0,1,1-12.133,12.339A12.235,12.235,0,0,1,461.066,333.151Zm24.267,37.017A12.339,12.339,0,1,1,473.2,382.5,12.235,12.235,0,0,1,485.333,370.168Zm-72.8-37.017A12.341,12.341,0,1,1,400.4,345.49,12.235,12.235,0,0,1,412.532,333.151ZM436.8,370.168A12.339,12.339,0,1,1,424.665,382.5,12.234,12.234,0,0,1,436.8,370.168Zm-309.4,283.8c30.1,0,54.6-24.917,54.6-55.53s-24.5-55.525-54.6-55.525-54.6,24.913-54.6,55.525S97.3,653.966,127.4,653.966Zm0-86.375c16.721,0,30.333,13.831,30.333,30.845s-13.612,30.85-30.333,30.85-30.333-13.831-30.333-30.85S110.68,567.591,127.4,567.591Zm479.267,0a12.341,12.341,0,1,1-12.133,12.339A12.238,12.238,0,0,1,606.666,567.591Zm-48.533,0A12.341,12.341,0,1,1,546,579.93,12.237,12.237,0,0,1,558.133,567.591Zm72.8,37.017A12.341,12.341,0,1,1,618.8,616.947,12.236,12.236,0,0,1,630.932,604.608Zm-48.534,0a12.341,12.341,0,1,1-12.133,12.339A12.235,12.235,0,0,1,582.4,604.608Zm-72.8-37.017a12.341,12.341,0,1,1-12.133,12.339A12.238,12.238,0,0,1,509.6,567.591Zm24.266,37.017a12.341,12.341,0,1,1-12.133,12.339A12.236,12.236,0,0,1,533.865,604.608Zm-72.8-37.017a12.341,12.341,0,1,1-12.133,12.339A12.238,12.238,0,0,1,461.066,567.591Zm24.267,37.017A12.341,12.341,0,1,1,473.2,616.947,12.235,12.235,0,0,1,485.333,604.608Zm-72.8-37.017A12.341,12.341,0,1,1,400.4,579.93,12.238,12.238,0,0,1,412.532,567.591ZM436.8,604.608a12.341,12.341,0,1,1-12.135,12.339A12.234,12.234,0,0,1,436.8,604.608Z"/>
</svg>
