<svg xmlns="http://www.w3.org/2000/svg" width="264" height="264" viewBox="0 0 264 264">
  <defs>
    <style>
      .cls-1 {
        fill: #e74e72;
        fill-rule: evenodd;
      }
    </style>
  </defs>
  <path id="Forma_1_copy_10" data-name="Forma 1 copy 10" class="cls-1" d="M46.2,26.847A20.138,20.138,0,1,0,66,46.982,19.995,19.995,0,0,0,46.2,26.847Zm0,31.321a11.187,11.187,0,1,1,11-11.186A11.107,11.107,0,0,1,46.2,58.168ZM220,35.8a4.474,4.474,0,1,1-4.4,4.472A4.436,4.436,0,0,1,220,35.8Zm-17.6,0a4.474,4.474,0,1,1-4.4,4.472A4.436,4.436,0,0,1,202.4,35.8Zm26.4,13.422a4.475,4.475,0,1,1-4.4,4.475A4.438,4.438,0,0,1,228.8,49.219Zm-17.6,0a4.475,4.475,0,1,1-4.4,4.475A4.438,4.438,0,0,1,211.2,49.219ZM184.8,35.8a4.474,4.474,0,1,1-4.4,4.472A4.436,4.436,0,0,1,184.8,35.8Zm8.8,13.422a4.475,4.475,0,1,1-4.4,4.475A4.438,4.438,0,0,1,193.6,49.219ZM167.2,35.8a4.474,4.474,0,1,1-4.4,4.472A4.436,4.436,0,0,1,167.2,35.8ZM176,49.219a4.475,4.475,0,1,1-4.4,4.475A4.438,4.438,0,0,1,176,49.219ZM149.6,35.8a4.474,4.474,0,1,1-4.4,4.472A4.435,4.435,0,0,1,149.6,35.8Zm8.8,13.422a4.475,4.475,0,1,1-4.4,4.475A4.439,4.439,0,0,1,158.4,49.219ZM264,73.346V20.617A20.471,20.471,0,0,0,243.724,0H20.275A20.471,20.471,0,0,0,0,20.617V73.342A20.618,20.618,0,0,0,7.819,89.485,20.646,20.646,0,0,0,0,105.634v52.724A20.623,20.623,0,0,0,7.819,174.5,20.641,20.641,0,0,0,0,190.651v52.724A20.472,20.472,0,0,0,20.275,264H243.72A20.471,20.471,0,0,0,264,243.38V190.651a20.622,20.622,0,0,0-7.818-16.144A20.615,20.615,0,0,0,264,158.364v-52.73a20.619,20.619,0,0,0-7.819-16.144A20.625,20.625,0,0,0,264,73.346Zm-8.8,117.3v52.724a11.587,11.587,0,0,1-11.476,11.67H20.275A11.581,11.581,0,0,1,8.8,243.38V190.651a11.587,11.587,0,0,1,11.475-11.669H243.72A11.587,11.587,0,0,1,255.2,190.651Zm0-85.017v52.724a11.589,11.589,0,0,1-11.476,11.671H20.275A11.581,11.581,0,0,1,8.8,158.364v-52.73A11.587,11.587,0,0,1,20.275,93.965H243.72A11.588,11.588,0,0,1,255.2,105.634ZM20.275,85.016A11.588,11.588,0,0,1,8.8,73.346V20.617A11.587,11.587,0,0,1,20.275,8.948H243.72A11.587,11.587,0,0,1,255.2,20.617V73.342A11.587,11.587,0,0,1,243.724,85.01H20.275v0.005ZM46.2,152.133A20.138,20.138,0,1,0,26.4,132,19.993,19.993,0,0,0,46.2,152.133Zm0-31.32A11.187,11.187,0,1,1,35.2,132,11.107,11.107,0,0,1,46.2,120.813Zm173.8,0a4.475,4.475,0,1,1-4.4,4.475A4.437,4.437,0,0,1,220,120.813Zm-17.6,0a4.475,4.475,0,1,1-4.4,4.475A4.437,4.437,0,0,1,202.4,120.813Zm26.4,13.424a4.474,4.474,0,1,1-4.4,4.473A4.437,4.437,0,0,1,228.8,134.237Zm-17.6,0a4.474,4.474,0,1,1-4.4,4.473A4.437,4.437,0,0,1,211.2,134.237Zm-26.4-13.424a4.475,4.475,0,1,1-4.4,4.475A4.437,4.437,0,0,1,184.8,120.813Zm8.8,13.424a4.474,4.474,0,1,1-4.4,4.473A4.437,4.437,0,0,1,193.6,134.237Zm-26.4-13.424a4.475,4.475,0,1,1-4.4,4.475A4.437,4.437,0,0,1,167.2,120.813Zm8.8,13.424a4.474,4.474,0,1,1-4.4,4.473A4.437,4.437,0,0,1,176,134.237Zm-26.4-13.424a4.475,4.475,0,1,1-4.4,4.475A4.436,4.436,0,0,1,149.6,120.813Zm8.8,13.424a4.474,4.474,0,1,1-4.4,4.473A4.437,4.437,0,0,1,158.4,134.237ZM46.2,237.152a20.139,20.139,0,1,0-19.8-20.137A20,20,0,0,0,46.2,237.152Zm0-31.322a11.188,11.188,0,1,1-11,11.185A11.106,11.106,0,0,1,46.2,205.83Zm173.8,0a4.475,4.475,0,1,1-4.4,4.474A4.437,4.437,0,0,1,220,205.83Zm-17.6,0A4.475,4.475,0,1,1,198,210.3,4.437,4.437,0,0,1,202.4,205.83Zm26.4,13.423a4.476,4.476,0,1,1-4.4,4.475A4.437,4.437,0,0,1,228.8,219.253Zm-17.6,0a4.476,4.476,0,1,1-4.4,4.475A4.437,4.437,0,0,1,211.2,219.253ZM184.8,205.83a4.475,4.475,0,1,1-4.4,4.474A4.437,4.437,0,0,1,184.8,205.83Zm8.8,13.423a4.476,4.476,0,1,1-4.4,4.475A4.437,4.437,0,0,1,193.6,219.253ZM167.2,205.83a4.475,4.475,0,1,1-4.4,4.474A4.437,4.437,0,0,1,167.2,205.83Zm8.8,13.423a4.476,4.476,0,1,1-4.4,4.475A4.437,4.437,0,0,1,176,219.253ZM149.6,205.83a4.475,4.475,0,1,1-4.4,4.474A4.437,4.437,0,0,1,149.6,205.83Zm8.8,13.423a4.476,4.476,0,1,1-4.4,4.475A4.438,4.438,0,0,1,158.4,219.253Z"/>
</svg>
