<svg xmlns="http://www.w3.org/2000/svg" width="1070" height="1283" viewBox="0 0 1070 1283">
  <defs>
    <style>
      .cls-1 {
        fill: #e445e6;
        fill-rule: evenodd;
      }
    </style>
  </defs>
  <path class="cls-1" d="M292.461-.015H49.548C36.4-.015,24.974,4.764,15.375,14.33S0.955,35.211.955,48.283V1234.61q0,19.605,14.419,33.97,14.472,14.325,34.173,14.35H1021.32q19.7,0,34.16-14.35,14.4-14.385,14.42-33.97V48.283q0-19.609-14.46-33.953h0Q1041.04-.02,1021.27-0.015H778.344M681.159,72.447a23.141,23.141,0,0,1-7.185,17.025,23.517,23.517,0,0,1-17.062,7.138H608.328a23.545,23.545,0,0,1-17.111-7.138,23.3,23.3,0,0,1-7.186-17.025V-0.015H486.839V72.447a23.3,23.3,0,0,1-7.186,17.025,23.572,23.572,0,0,1-17.111,7.138H414a23.559,23.559,0,0,1-17.111-7.138A23.111,23.111,0,0,1,389.7,72.447M972.722,1186.28H681.208V924.562a24.6,24.6,0,0,0-24.3-24.164H413.95a24.6,24.6,0,0,0-24.3,24.164V1186.28H98.148V96.61H292.51v24.164q0,30.2,21.246,51.347,21.225,21.1,51.642,21.134H705.5q30.376,0,51.594-21.134,21.3-21.167,21.246-51.347V96.61H972.722V1186.28Zm0,0M268.165,780.62H219.621a23.527,23.527,0,0,0-17.1,7.148,23.269,23.269,0,0,0-7.185,16.976v48.337a24.473,24.473,0,0,0,24.288,24.125h48.544a23.366,23.366,0,0,0,17.111-7.148,23.113,23.113,0,0,0,7.185-16.977V804.744a23.08,23.08,0,0,0-7.185-16.976,23.519,23.519,0,0,0-17.111-7.148h0Zm0,0,0-204.856H219.621a24.54,24.54,0,0,0-24.288,24.163v48.318a23.316,23.316,0,0,0,7.185,17,23.572,23.572,0,0,0,17.1,7.158h48.544a23.564,23.564,0,0,0,17.111-7.158,23.128,23.128,0,0,0,7.185-17V599.927a23.068,23.068,0,0,0-7.185-16.977,23.407,23.407,0,0,0-17.111-7.186h0Zm0,0,194.377,0H413.95a23.389,23.389,0,0,0-17.062,7.186,23.086,23.086,0,0,0-7.234,16.977v48.318a23.145,23.145,0,0,0,7.234,17,23.546,23.546,0,0,0,17.062,7.158h48.592a23.588,23.588,0,0,0,17.111-7.158,23.283,23.283,0,0,0,7.186-17V599.927a24.542,24.542,0,0,0-24.3-24.163h0Zm0,0M268.165,324.639H219.621A24.472,24.472,0,0,0,195.333,348.8v48.259a24.508,24.508,0,0,0,24.288,24.164h48.544a23.386,23.386,0,0,0,17.111-7.168,23.032,23.032,0,0,0,7.185-17V348.8a23.137,23.137,0,0,0-7.185-17.016,23.523,23.523,0,0,0-17.111-7.148h0Zm0,0M851.241,780.62H802.648a23.532,23.532,0,0,0-17.07,7.148,23.08,23.08,0,0,0-7.185,16.976v48.337a23.113,23.113,0,0,0,7.185,16.977,23.379,23.379,0,0,0,17.07,7.148h48.593a24.473,24.473,0,0,0,24.3-24.125V804.744a23.269,23.269,0,0,0-7.185-16.976,23.558,23.558,0,0,0-17.111-7.148h0Zm0,0M656.912,575.764H608.328a24.542,24.542,0,0,0-24.3,24.163v48.318a23.283,23.283,0,0,0,7.186,17,23.561,23.561,0,0,0,17.111,7.158h48.584a23.533,23.533,0,0,0,17.062-7.158,23.128,23.128,0,0,0,7.185-17V599.927a23.068,23.068,0,0,0-7.185-16.977,23.31,23.31,0,0,0-17.062-7.186h0Zm0,0M462.542,324.639H413.95a23.5,23.5,0,0,0-17.062,7.148,23.155,23.155,0,0,0-7.234,17.016v48.259a23.049,23.049,0,0,0,7.234,17,23.368,23.368,0,0,0,17.062,7.168h48.592a24.509,24.509,0,0,0,24.3-24.164V348.8a23.292,23.292,0,0,0-7.186-17.016,23.547,23.547,0,0,0-17.111-7.148h0Zm0,0,388.7,251.125H802.648a23.42,23.42,0,0,0-17.07,7.186,23.068,23.068,0,0,0-7.185,16.977v48.318a23.128,23.128,0,0,0,7.185,17,23.577,23.577,0,0,0,17.07,7.158h48.593a23.6,23.6,0,0,0,17.111-7.158,23.316,23.316,0,0,0,7.185-17V599.927a24.54,24.54,0,0,0-24.3-24.163h0Zm0,0M656.912,324.639H608.328a24.474,24.474,0,0,0-24.3,24.164v48.259a24.509,24.509,0,0,0,24.3,24.164h48.584a23.355,23.355,0,0,0,17.062-7.168,23.032,23.032,0,0,0,7.185-17V348.8a23.137,23.137,0,0,0-7.185-17.016,23.425,23.425,0,0,0-17.062-7.148h0Zm0,0,121.432,72.423a23.079,23.079,0,0,0,7.234,17,23.319,23.319,0,0,0,17.07,7.168h48.593a24.508,24.508,0,0,0,24.3-24.164V348.8a23.326,23.326,0,0,0-7.185-17.016,23.562,23.562,0,0,0-17.111-7.148H802.648a23.456,23.456,0,0,0-17.07,7.148,23.186,23.186,0,0,0-7.234,17.016v48.259Zm0,0"/>
</svg>
