<svg xmlns="http://www.w3.org/2000/svg" width="799" height="799" viewBox="0 0 799 799">
  <defs>
    <style>
      .cls-1 {
        fill: #67b26b;
        fill-rule: evenodd;
      }
    </style>
  </defs>
  <path id="Forma_1_copy_12" data-name="Forma 1 copy 12" class="cls-1" d="M139.824,81.252c-33.039,0-59.926,27.342-59.926,60.94s26.887,60.938,59.926,60.938,59.926-27.34,59.926-60.938S172.863,81.252,139.824,81.252Zm0,94.794c-18.351,0-33.291-15.183-33.291-33.854s14.94-33.853,33.291-33.853,33.291,15.175,33.291,33.853S158.175,176.046,139.824,176.046Zm526.009-67.707a13.542,13.542,0,1,1-13.316,13.535A13.425,13.425,0,0,1,665.833,108.339Zm-53.267,0a13.542,13.542,0,1,1-13.316,13.535A13.425,13.425,0,0,1,612.566,108.339Zm79.9,40.622A13.544,13.544,0,1,1,679.149,162.5,13.432,13.432,0,0,1,692.465,148.961Zm-53.267,0A13.544,13.544,0,1,1,625.882,162.5,13.432,13.432,0,0,1,639.2,148.961Zm-79.9-40.622a13.542,13.542,0,1,1-13.316,13.535A13.425,13.425,0,0,1,559.3,108.339Zm26.633,40.622A13.544,13.544,0,1,1,572.615,162.5,13.432,13.432,0,0,1,585.932,148.961Zm-79.9-40.622a13.542,13.542,0,1,1-13.316,13.535A13.426,13.426,0,0,1,506.032,108.339Zm26.633,40.622A13.544,13.544,0,1,1,519.349,162.5,13.432,13.432,0,0,1,532.665,148.961Zm-79.9-40.622a13.542,13.542,0,1,1-13.317,13.535A13.426,13.426,0,0,1,452.766,108.339ZM479.4,148.961A13.544,13.544,0,1,1,466.082,162.5,13.432,13.432,0,0,1,479.4,148.961ZM799,221.983V62.4C799,27.989,771.474,0,737.636,0H61.362C27.524,0,0,27.989,0,62.4v159.57a62.4,62.4,0,0,0,23.665,48.859A62.484,62.484,0,0,0,0,319.7v159.57a62.416,62.416,0,0,0,23.665,48.863A62.47,62.47,0,0,0,0,577.007v159.57C0,771,27.524,799,61.362,799h676.26c33.838,0,61.363-27.994,61.363-62.4V577.007a62.409,62.409,0,0,0-23.663-48.859A62.394,62.394,0,0,0,799,479.29V319.7a62.409,62.409,0,0,0-23.663-48.859A62.426,62.426,0,0,0,799,221.983ZM772.366,577.007v159.57c0,19.478-15.58,35.321-34.73,35.321H61.362c-19.148.012-34.731-15.831-34.731-35.3V577.007c0-19.474,15.582-35.316,34.731-35.316h676.26C756.786,541.691,772.366,557.533,772.366,577.007Zm0-257.3v159.57c0,19.474-15.58,35.321-34.73,35.321H61.362c-19.148.012-34.731-15.831-34.731-35.3V319.7c0-19.474,15.582-35.316,34.731-35.316h676.26C756.786,284.387,772.366,300.229,772.366,319.7Zm-711-62.4c-19.148,0-34.731-15.845-34.731-35.319V62.4c0-19.473,15.582-35.316,34.731-35.316h676.26c19.164,0,34.744,15.843,34.744,35.316v159.57c0,19.474-15.58,35.316-34.73,35.316H61.362V257.3Zm78.462,203.132c33.039,0,59.926-27.34,59.926-60.938s-26.887-60.94-59.926-60.94S79.9,365.9,79.9,399.5,106.785,460.434,139.824,460.434Zm0-94.791c18.351,0,33.291,15.18,33.291,33.853s-14.94,33.854-33.291,33.854-33.291-15.176-33.291-33.854S121.473,365.643,139.824,365.643Zm526.009,0a13.544,13.544,0,1,1-13.316,13.542A13.427,13.427,0,0,1,665.833,365.643Zm-53.267,0a13.544,13.544,0,1,1-13.316,13.542A13.427,13.427,0,0,1,612.566,365.643Zm79.9,40.627a13.542,13.542,0,1,1-13.316,13.537A13.428,13.428,0,0,1,692.465,406.27Zm-53.267,0a13.542,13.542,0,1,1-13.316,13.537A13.429,13.429,0,0,1,639.2,406.27Zm-79.9-40.627a13.544,13.544,0,1,1-13.316,13.542A13.427,13.427,0,0,1,559.3,365.643Zm26.633,40.627a13.542,13.542,0,1,1-13.317,13.537A13.429,13.429,0,0,1,585.932,406.27Zm-79.9-40.627a13.544,13.544,0,1,1-13.316,13.542A13.428,13.428,0,0,1,506.032,365.643Zm26.633,40.627a13.542,13.542,0,1,1-13.316,13.537A13.428,13.428,0,0,1,532.665,406.27Zm-79.9-40.627a13.544,13.544,0,1,1-13.317,13.542A13.428,13.428,0,0,1,452.766,365.643ZM479.4,406.27a13.542,13.542,0,1,1-13.316,13.537A13.428,13.428,0,0,1,479.4,406.27ZM139.824,717.746c33.039,0,59.926-27.348,59.926-60.946s-26.887-60.94-59.926-60.94S79.9,623.2,79.9,656.8,106.785,717.746,139.824,717.746Zm0-94.8c18.351,0,33.291,15.18,33.291,33.853s-14.94,33.859-33.291,33.859-33.291-15.181-33.291-33.859S121.473,622.947,139.824,622.947Zm526.009,0a13.544,13.544,0,1,1-13.316,13.542A13.43,13.43,0,0,1,665.833,622.947Zm-53.267,0a13.544,13.544,0,1,1-13.316,13.542A13.43,13.43,0,0,1,612.566,622.947Zm79.9,40.627a13.544,13.544,0,1,1-13.316,13.542A13.429,13.429,0,0,1,692.465,663.574Zm-53.267,0a13.544,13.544,0,1,1-13.316,13.542A13.43,13.43,0,0,1,639.2,663.574Zm-79.9-40.627a13.544,13.544,0,1,1-13.316,13.542A13.43,13.43,0,0,1,559.3,622.947Zm26.633,40.627a13.544,13.544,0,1,1-13.317,13.542A13.43,13.43,0,0,1,585.932,663.574Zm-79.9-40.627a13.544,13.544,0,1,1-13.316,13.542A13.431,13.431,0,0,1,506.032,622.947Zm26.633,40.627a13.544,13.544,0,1,1-13.316,13.542A13.429,13.429,0,0,1,532.665,663.574Zm-79.9-40.627a13.544,13.544,0,1,1-13.317,13.542A13.431,13.431,0,0,1,452.766,622.947ZM479.4,663.574a13.544,13.544,0,1,1-13.316,13.542A13.429,13.429,0,0,1,479.4,663.574Z"/>
</svg>
