<svg xmlns="http://www.w3.org/2000/svg" width="276" height="276" viewBox="0 0 276 276">
  <defs>
    <style>
      .cls-1 {
        fill: #044c95;
        fill-rule: evenodd;
      }
    </style>
  </defs>
  <path id="Forma_1" data-name="Forma 1" class="cls-1" d="M48.3,28.067A21.053,21.053,0,1,0,69,49.118,20.9,20.9,0,0,0,48.3,28.067Zm0,32.745A11.7,11.7,0,1,1,59.8,49.118,11.612,11.612,0,0,1,48.3,60.812ZM230,37.424a4.678,4.678,0,1,1-4.6,4.676A4.638,4.638,0,0,1,230,37.424Zm-18.4,0A4.678,4.678,0,1,1,207,42.1,4.638,4.638,0,0,1,211.6,37.424Zm27.6,14.032a4.679,4.679,0,1,1-4.6,4.678A4.639,4.639,0,0,1,239.2,51.456Zm-18.4,0a4.679,4.679,0,1,1-4.6,4.678A4.639,4.639,0,0,1,220.8,51.456ZM193.2,37.424a4.678,4.678,0,1,1-4.6,4.676A4.638,4.638,0,0,1,193.2,37.424Zm9.2,14.032a4.679,4.679,0,1,1-4.6,4.678A4.639,4.639,0,0,1,202.4,51.456ZM174.8,37.424a4.678,4.678,0,1,1-4.6,4.676A4.638,4.638,0,0,1,174.8,37.424ZM184,51.456a4.679,4.679,0,1,1-4.6,4.678A4.639,4.639,0,0,1,184,51.456ZM156.4,37.424a4.678,4.678,0,1,1-4.6,4.676A4.638,4.638,0,0,1,156.4,37.424Zm9.2,14.032a4.679,4.679,0,1,1-4.6,4.678A4.64,4.64,0,0,1,165.6,51.456ZM276,76.68V21.554A21.4,21.4,0,0,0,254.8,0H21.2A21.4,21.4,0,0,0,0,21.554V76.675A21.555,21.555,0,0,0,8.174,93.553,21.583,21.583,0,0,0,0,110.435v55.121a21.56,21.56,0,0,0,8.174,16.879A21.578,21.578,0,0,0,0,199.316v55.121A21.4,21.4,0,0,0,21.2,276H254.8A21.4,21.4,0,0,0,276,254.443V199.316a21.559,21.559,0,0,0-8.174-16.877A21.554,21.554,0,0,0,276,165.562V110.435a21.556,21.556,0,0,0-8.175-16.877A21.563,21.563,0,0,0,276,76.68Zm-9.2,122.636v55.121a12.113,12.113,0,0,1-12,12.2H21.2a12.107,12.107,0,0,1-12-12.195V199.316a12.113,12.113,0,0,1,12-12.2H254.8A12.114,12.114,0,0,1,266.8,199.316Zm0-88.881v55.121a12.114,12.114,0,0,1-12,12.2H21.2a12.107,12.107,0,0,1-12-12.195V110.435a12.113,12.113,0,0,1,12-12.2H254.8A12.114,12.114,0,0,1,266.8,110.435ZM21.2,88.88a12.114,12.114,0,0,1-12-12.2V21.554a12.113,12.113,0,0,1,12-12.2H254.8a12.114,12.114,0,0,1,12,12.2V76.675a12.113,12.113,0,0,1-12,12.2H21.2V88.88Zm27.1,70.169A21.053,21.053,0,1,0,27.6,138,20.9,20.9,0,0,0,48.3,159.049Zm0-32.744A11.7,11.7,0,1,1,36.8,138,11.611,11.611,0,0,1,48.3,126.305Zm181.7,0a4.679,4.679,0,1,1-4.6,4.678A4.638,4.638,0,0,1,230,126.305Zm-18.4,0a4.679,4.679,0,1,1-4.6,4.678A4.639,4.639,0,0,1,211.6,126.305Zm27.6,14.033a4.678,4.678,0,1,1-4.6,4.677A4.638,4.638,0,0,1,239.2,140.338Zm-18.4,0a4.678,4.678,0,1,1-4.6,4.677A4.638,4.638,0,0,1,220.8,140.338Zm-27.6-14.033a4.679,4.679,0,1,1-4.6,4.678A4.639,4.639,0,0,1,193.2,126.305Zm9.2,14.033a4.678,4.678,0,1,1-4.6,4.677A4.638,4.638,0,0,1,202.4,140.338Zm-27.6-14.033a4.679,4.679,0,1,1-4.6,4.678A4.639,4.639,0,0,1,174.8,126.305Zm9.2,14.033a4.678,4.678,0,1,1-4.6,4.677A4.638,4.638,0,0,1,184,140.338Zm-27.6-14.033a4.679,4.679,0,1,1-4.6,4.678A4.639,4.639,0,0,1,156.4,126.305Zm9.2,14.033a4.678,4.678,0,1,1-4.6,4.677A4.639,4.639,0,0,1,165.6,140.338ZM48.3,247.932A21.054,21.054,0,1,0,27.6,226.88,20.9,20.9,0,0,0,48.3,247.932Zm0-32.746A11.7,11.7,0,1,1,36.8,226.88,11.611,11.611,0,0,1,48.3,215.186Zm181.7,0a4.679,4.679,0,1,1-4.6,4.678A4.639,4.639,0,0,1,230,215.186Zm-18.4,0a4.679,4.679,0,1,1-4.6,4.678A4.64,4.64,0,0,1,211.6,215.186Zm27.6,14.034a4.678,4.678,0,1,1-4.6,4.677A4.637,4.637,0,0,1,239.2,229.22Zm-18.4,0a4.678,4.678,0,1,1-4.6,4.677A4.637,4.637,0,0,1,220.8,229.22Zm-27.6-14.034a4.679,4.679,0,1,1-4.6,4.678A4.64,4.64,0,0,1,193.2,215.186Zm9.2,14.034a4.678,4.678,0,1,1-4.6,4.677A4.637,4.637,0,0,1,202.4,229.22Zm-27.6-14.034a4.679,4.679,0,1,1-4.6,4.678A4.64,4.64,0,0,1,174.8,215.186ZM184,229.22a4.678,4.678,0,1,1-4.6,4.677A4.637,4.637,0,0,1,184,229.22Zm-27.6-14.034a4.679,4.679,0,1,1-4.6,4.678A4.64,4.64,0,0,1,156.4,215.186Zm9.2,14.034A4.678,4.678,0,1,1,161,233.9,4.638,4.638,0,0,1,165.6,229.22Z"/>
</svg>
